<?xml version="1.0" encoding="UTF-8"?>
<svg id="Layer_2" data-name="Layer 2" xmlns="http://www.w3.org/2000/svg" viewBox="0 0 337.78 235.88">
  <defs>
    <style>
      .cls-1, .cls-2, .cls-3 {
        fill: #f5eaef;
      }

      .cls-2 {
        font-size: 114.82px;
      }

      .cls-2, .cls-3 {
        font-family: RoughLove-Regular, 'Rough Love';
      }

      .cls-4 {
        fill: none;
        stroke: #f5eaef;
        stroke-miterlimit: 10;
        stroke-width: 1.6px;
      }

      .cls-3 {
        font-size: 83.39px;
      }
    </style>
  </defs>
  <g id="Layer_4" data-name="Layer 4">
    <g>
      <text class="cls-3" transform="translate(31.28 68.79)"><tspan x="0" y="0">Sugar </tspan><tspan x="0" y="100.07" xml:space="preserve">    Spice</tspan></text>
      <text class="cls-2" transform="translate(2.22 164.58)"><tspan x="0" y="0">&amp; </tspan></text>
      <path class="cls-1" d="M172.88,139.93c1.35-6.7,.65-13.8-1.98-20.11,1.77,2.61,4.76,4.06,7.18,6.08,3.47,2.9,5.83,7.1,6.47,11.58s-.42,9.18-2.93,12.94c0-.18,0-.37-.01-.55"/>
      <path class="cls-1" d="M148.06,74.66c.58-.16,1.19,.08,1.74,.31,1.65,.7,3.36,1.46,4.52,2.83s1.62,3.51,.55,4.95c-.39,.52-.94,.9-1.43,1.33-.47,.41-.9,.88-1.48,1.12-.63,.26-1.39,.18-1.95-.2s-.92-1.05-.92-1.74c.78,.61,1.98,.47,2.72-.19s1.03-1.72,.91-2.7c-.12-.96-.6-1.88-1.36-2.47s-1.79-.85-2.73-.63c-.03-.15-.06-.3-.08-.45"/>
      <path class="cls-4" d="M82.16,173.77c2.65,.41,5.39-1.44,6.26-3.97s.01-5.5-1.88-7.4c-2.07-2.08-5.31-2.91-8.12-2.08-1.22,.36-2.33,.99-3.41,1.66-9.34,5.89-16.23,15.44-26.32,19.92-2.41,1.07-4.94,1.82-7.48,2.49-10.8,2.85-20.56,5.35-31.72,5.52"/>
      <path class="cls-4" d="M80.13,172c1.68,.79,3.89-.2,4.6-1.92s0-3.84-1.49-4.96-3.57-1.27-5.3-.6c-.95,.37-1.8,.95-2.63,1.54-2.57,1.78-5.13,3.57-7.56,5.53-2.17,1.75-4.06,3.88-6.4,5.4-15.65,10.13-33.83,14.79-51.31,13.84"/>
      <path class="cls-1" d="M53.52,181.76c1.7-1.04,3.46-2.15,4.46-3.87-1.04-.21-2.09-.33-3.15-.38-1.04-.05-.48,.48-.77,.92-.16,.25-.07,.63-.48,1.13-.67,.82-2.22,1.47-3.15,1.96-2.14,1.13-4.43,1.98-6.79,2.5-.58,.13-1.19,.24-1.7,.56s-.91,.89-.83,1.48"/>
      <path class="cls-1" d="M10.38,188.98c.24,.39,1.09,.14,1.14,.59,0,.1-.04,.2-.1,.29-.5,.8-1.6,1.17-2.49,.83-.33-.13-.66-.38-.7-.74-.06-.49,.46-.88,.95-.96s.99,.04,1.49-.02"/>
      <path class="cls-1" d="M7.19,187.61c-.63-.48-1.23-1.03-1.58-1.74-.41-.84-.42-1.86-.02-2.71s1.2-1.48,2.11-1.69c-1.41-.4-3,.5-3.6,1.84s-.35,2.96,.42,4.22c.82,1.33,2.12,2.27,3.39,3.17,.74,.53,1.63,1.08,2.49,.8-1.02-1.96-1.53-2.63-3.21-3.89Z"/>
      <path class="cls-1" d="M20.41,191.02c3.51-.02,6.82-1.65,10.32-2.01,.76-.08,1.53-.1,2.29-.22,.76-.12,1.51-.34,2.25-.56,1.37-.41,2.74-.81,4.11-1.22,.5-.15,1.01-.3,1.43-.6s.75-.79,.71-1.31c-.02-.27-.14-.54-.37-.67-.21-.12-.47-.11-.72-.09-2.37,.22-4.6,1.16-6.84,1.96-2.92,1.04-5.91,1.86-8.94,2.49-1.52,.32-3.04,.58-4.58,.8-.54,.08-1.36,.04-1.15,.79,.16,.58,1.01,.64,1.49,.64Z"/>
      <path class="cls-1" d="M72.22,167c2.71-1.75,5.96-2.66,9.18-2.57,.68,.02,1.41,.11,1.88,.6,.29,.3,.44,.72,.55,1.13,.29,1.03,.46,2.1,.51,3.17,.03,.68,.03,1.44,.51,1.93,.65,.67,1.85,.41,2.47-.29s.79-1.67,.91-2.6c.17-1.35,.27-2.79-.37-3.99-.4-.74-1.04-1.31-1.7-1.82-1.92-1.49-4.24-2.68-6.66-2.51-2.08,.15-3.89,1.28-5.48,2.55-.6,.48-1.43,1.02-1.72,1.76-.19,.46,.24,2.44-.06,2.64Z"/>
    </g>
  </g>
</svg>