<?xml version="1.0" encoding="UTF-8"?>
<svg id="Layer_2" data-name="Layer 2" xmlns="http://www.w3.org/2000/svg" viewBox="0 0 211.27 147.54">
  <defs>
    <style>
      .cls-1, .cls-2, .cls-3 {
        fill: #f5eaef;
      }

      .cls-2 {
        font-size: 52.16px;
      }

      .cls-2, .cls-3 {
        font-family: RoughLove-Regular, 'Rough Love';
      }

      .cls-4 {
        fill: none;
        stroke: #f5eaef;
        stroke-miterlimit: 10;
      }

      .cls-3 {
        font-size: 71.82px;
      }
    </style>
  </defs>
  <g id="Layer_4" data-name="Layer 4">
    <g>
      <text class="cls-2" transform="translate(19.56 43.03)"><tspan x="0" y="0">Sugar </tspan><tspan x="0" y="62.59" xml:space="preserve">    Spice</tspan></text>
      <text class="cls-3" transform="translate(1.39 102.94)"><tspan x="0" y="0">&amp; </tspan></text>
      <path class="cls-1" d="M108.13,87.52c.84-4.19,.4-8.63-1.24-12.58,1.11,1.63,2.98,2.54,4.49,3.8,2.17,1.81,3.64,4.44,4.05,7.24s-.26,5.74-1.83,8.09c0-.12,0-.23,0-.35"/>
      <path class="cls-1" d="M92.61,46.69c.36-.1,.74,.05,1.09,.2,1.03,.44,2.1,.92,2.83,1.77s1.01,2.2,.34,3.1c-.24,.33-.59,.56-.89,.83-.29,.26-.56,.55-.92,.7-.39,.16-.87,.11-1.22-.13s-.57-.66-.57-1.09c.49,.38,1.24,.29,1.7-.12s.64-1.07,.57-1.69c-.07-.6-.38-1.17-.85-1.55s-1.12-.53-1.71-.39c-.02-.09-.04-.19-.05-.28"/>
      <path class="cls-4" d="M51.39,108.69c1.66,.26,3.37-.9,3.92-2.49s0-3.44-1.18-4.63c-1.3-1.3-3.32-1.82-5.08-1.3-.76,.22-1.46,.62-2.13,1.04-5.84,3.68-10.15,9.66-16.47,12.46-1.5,.67-3.09,1.14-4.68,1.56-6.75,1.79-12.86,3.35-19.84,3.45"/>
      <path class="cls-4" d="M50.12,107.58c1.05,.49,2.43-.13,2.88-1.2s0-2.4-.93-3.1-2.23-.8-3.32-.38c-.59,.23-1.12,.6-1.65,.96-1.6,1.11-3.21,2.23-4.73,3.46-1.36,1.1-2.54,2.43-4,3.37-9.79,6.34-21.16,9.25-32.09,8.66"/>
      <path class="cls-1" d="M33.48,113.68c1.06-.65,2.17-1.34,2.79-2.42-.65-.13-1.31-.21-1.97-.24-.65-.03-.3,.3-.48,.57-.1,.15-.04,.4-.3,.71-.42,.52-1.39,.92-1.97,1.23-1.34,.71-2.77,1.24-4.25,1.57-.37,.08-.74,.15-1.06,.35s-.57,.55-.52,.93"/>
      <path class="cls-1" d="M6.49,118.2c.15,.24,.68,.09,.71,.37,0,.06-.03,.13-.06,.18-.31,.5-1,.73-1.56,.52-.21-.08-.41-.24-.44-.46-.04-.31,.28-.55,.59-.6s.62,.03,.93-.01"/>
      <path class="cls-1" d="M4.5,117.34c-.39-.3-.77-.64-.99-1.09-.26-.52-.26-1.17-.01-1.69s.75-.93,1.32-1.06c-.88-.25-1.87,.31-2.25,1.15s-.22,1.85,.27,2.64c.51,.83,1.32,1.42,2.12,1.98,.46,.33,1.02,.68,1.56,.5-.64-1.22-.95-1.64-2.01-2.43Z"/>
      <path class="cls-1" d="M12.77,119.48c2.2-.02,4.27-1.03,6.45-1.26,.48-.05,.96-.06,1.43-.14,.48-.07,.94-.21,1.41-.35,.86-.25,1.71-.51,2.57-.76,.31-.09,.63-.19,.89-.38s.47-.5,.45-.82c-.01-.17-.09-.34-.23-.42-.13-.08-.3-.07-.45-.05-1.48,.14-2.88,.72-4.28,1.22-1.83,.65-3.7,1.16-5.59,1.56-.95,.2-1.9,.36-2.86,.5-.34,.05-.85,.02-.72,.5,.1,.37,.63,.4,.93,.4Z"/>
      <path class="cls-1" d="M45.17,104.46c1.7-1.1,3.73-1.67,5.74-1.61,.42,.01,.88,.07,1.18,.37,.18,.19,.27,.45,.35,.7,.18,.64,.29,1.31,.32,1.98,.02,.43,.02,.9,.32,1.21,.4,.42,1.16,.26,1.54-.18s.49-1.05,.57-1.62c.11-.84,.17-1.75-.23-2.5-.25-.46-.65-.82-1.07-1.14-1.2-.93-2.65-1.68-4.17-1.57-1.3,.09-2.44,.8-3.43,1.6-.38,.3-.89,.64-1.08,1.1-.12,.29,.15,1.53-.04,1.65Z"/>
    </g>
  </g>
</svg>